<?xml version="1.0" standalone="no"?>
<!DOCTYPE svg PUBLIC "-//W3C//DTD SVG 20010904//EN"
 "http://www.w3.org/TR/2001/REC-SVG-20010904/DTD/svg10.dtd">
<svg version="1.0" xmlns="http://www.w3.org/2000/svg"
 width="500.000000pt" height="500.000000pt" viewBox="0 0 500.000000 500.000000"
 preserveAspectRatio="xMidYMid meet">
<metadata>
Created by potrace 1.11, written by Peter Selinger 2001-2013
</metadata>
<g transform="translate(0.000000,500.000000) scale(0.100000,-0.100000)"
fill="#000000" stroke="none">
<path d="M2330 4902 c0 -5 -15 -9 -32 -10 -99 -2 -158 -10 -172 -21 -12 -10
-16 -10 -16 -2 0 7 -5 9 -12 4 -7 -4 -20 -8 -29 -8 -9 0 -23 -6 -32 -13 -10
-8 -17 -9 -21 -3 -5 7 -16 7 -34 0 -15 -6 -40 -13 -56 -15 -16 -2 -34 -8 -40
-14 -6 -6 -14 -6 -23 1 -10 9 -13 8 -13 -4 0 -11 -9 -15 -31 -15 -17 1 -35 -5
-40 -13 -7 -12 -9 -12 -9 1 0 12 -2 12 -8 2 -5 -7 -22 -15 -38 -18 -16 -3 -31
-8 -34 -12 -6 -8 -28 -15 -52 -16 -9 0 -15 -3 -12 -7 2 -4 -12 -10 -31 -13
-19 -4 -39 -14 -44 -24 -8 -13 -10 -13 -11 -3 0 11 -4 9 -15 -5 -9 -12 -14
-14 -15 -6 0 10 -4 10 -16 -2 -8 -9 -22 -16 -30 -16 -9 0 -12 -5 -8 -12 4 -6
3 -8 -3 -5 -14 9 -65 -17 -55 -28 4 -5 -1 -5 -10 -2 -10 4 -18 3 -18 -2 0 -5
-9 -11 -21 -14 -12 -3 -18 -10 -15 -16 4 -6 -2 -8 -14 -6 -11 2 -20 -1 -20 -6
0 -6 -4 -8 -9 -5 -5 3 -11 -1 -15 -9 -3 -8 -12 -15 -21 -15 -8 0 -15 -4 -15
-10 0 -5 -7 -7 -15 -3 -9 3 -15 2 -13 -3 2 -5 -2 -11 -7 -13 -6 -2 -16 -11
-23 -20 -8 -9 -11 -10 -7 -4 4 8 1 11 -9 7 -8 -3 -12 -12 -9 -20 4 -10 0 -12
-11 -8 -9 3 -16 1 -16 -5 0 -6 -6 -11 -14 -11 -8 0 -21 -9 -29 -20 -8 -11 -17
-17 -20 -13 -4 3 -7 1 -7 -6 0 -7 -5 -9 -12 -5 -8 5 -9 2 -5 -10 5 -14 3 -17
-8 -12 -8 3 -15 1 -15 -4 0 -6 -6 -10 -14 -10 -8 0 -18 -9 -21 -20 -4 -11 -11
-18 -16 -15 -5 4 -9 1 -9 -5 0 -6 -5 -8 -12 -4 -8 5 -9 2 -5 -10 4 -9 3 -15
-1 -12 -5 3 -24 -9 -43 -27 -19 -17 -37 -30 -41 -29 -5 1 -8 -3 -8 -9 0 -6
-41 -51 -92 -102 -51 -50 -87 -87 -80 -83 8 5 10 2 6 -8 -3 -9 -9 -14 -13 -12
-3 2 -12 -2 -19 -10 -7 -8 -10 -14 -6 -14 4 0 -5 -11 -20 -25 -14 -13 -26 -27
-26 -30 0 -3 -9 -14 -20 -25 -12 -12 -18 -26 -14 -32 5 -8 2 -9 -10 -5 -11 5
-15 3 -10 -5 4 -6 0 -16 -9 -23 -9 -6 -17 -18 -19 -25 -2 -8 -12 -22 -23 -32
-11 -9 -16 -17 -12 -18 4 0 -1 -10 -13 -22 -11 -12 -20 -28 -20 -35 0 -7 -5
-13 -11 -13 -6 0 -9 -7 -5 -15 3 -9 0 -15 -9 -15 -9 0 -12 -6 -8 -15 3 -10 0
-15 -8 -13 -9 2 -13 -4 -11 -14 2 -10 -2 -18 -8 -18 -6 0 -8 -5 -5 -10 3 -6
-1 -13 -9 -16 -9 -3 -14 -10 -11 -14 3 -5 1 -11 -5 -15 -6 -4 -8 -11 -5 -16 4
-5 -1 -12 -10 -15 -9 -4 -14 -13 -11 -20 3 -8 1 -14 -4 -14 -6 0 -9 -3 -8 -7
1 -5 -3 -18 -10 -29 -6 -12 -8 -24 -5 -28 3 -3 1 -6 -5 -6 -7 0 -12 -9 -12
-19 0 -11 -5 -21 -10 -23 -6 -2 -12 -14 -12 -28 -1 -14 -10 -37 -21 -52 -13
-20 -15 -28 -5 -28 10 0 9 -3 -2 -10 -8 -5 -10 -10 -5 -10 6 0 2 -5 -9 -11
-13 -8 -15 -13 -6 -19 9 -5 8 -11 -3 -21 -7 -8 -13 -24 -12 -37 1 -12 -3 -22
-8 -22 -5 0 -7 -7 -3 -15 3 -8 1 -15 -4 -15 -6 0 -9 -3 -9 -7 4 -22 -2 -33
-13 -27 -10 5 -10 4 -2 -5 11 -13 7 -71 -6 -71 -5 0 -7 -11 -5 -25 1 -14 -2
-25 -8 -25 -6 0 -7 -3 -4 -6 3 -4 2 -15 -4 -25 -7 -13 -6 -19 1 -19 6 0 8 -5
3 -12 -9 -16 -13 -34 -15 -75 -1 -18 -6 -33 -10 -33 -5 0 -4 -8 1 -18 7 -13 6
-23 -1 -30 -7 -7 -9 -12 -6 -12 4 0 3 -13 -2 -30 -6 -21 -5 -30 3 -30 8 0 8
-3 2 -8 -6 -4 -10 -37 -10 -74 1 -38 -2 -68 -5 -68 -4 0 -6 -12 -4 -27 2 -16
7 -80 10 -143 7 -148 6 -140 15 -140 5 0 4 -11 -1 -25 -5 -14 -6 -27 0 -30 5
-3 9 -13 9 -23 3 -66 7 -92 13 -92 4 0 5 -6 2 -14 -3 -7 2 -21 11 -30 9 -9 12
-16 6 -16 -10 0 -9 -13 8 -67 5 -17 7 -34 3 -37 -3 -3 -1 -6 4 -6 5 0 11 -14
12 -32 2 -18 6 -35 10 -38 7 -5 13 -24 15 -52 1 -10 5 -18 10 -18 4 0 5 -4 2
-10 -3 -5 -2 -10 4 -10 5 0 8 -9 6 -20 -2 -11 1 -20 6 -20 6 0 7 -4 4 -10 -3
-5 -2 -10 4 -10 6 0 8 -6 5 -14 -3 -8 -1 -17 5 -21 6 -3 11 -15 11 -26 0 -10
4 -19 10 -19 5 0 9 -3 9 -7 -3 -18 2 -34 9 -30 4 3 8 -6 9 -20 0 -14 7 -29 15
-34 7 -5 9 -9 4 -9 -5 0 -3 -6 3 -13 6 -8 8 -17 4 -20 -3 -4 -1 -7 6 -7 8 0
11 -6 7 -16 -3 -8 -2 -12 4 -9 5 3 12 -6 16 -20 3 -14 11 -22 17 -18 5 3 7 1
4 -5 -10 -15 3 -43 16 -35 5 3 7 1 3 -5 -3 -6 -2 -13 4 -17 6 -4 8 -11 5 -16
-4 -5 -1 -9 4 -9 6 0 11 -7 11 -15 0 -8 5 -15 11 -15 5 0 7 -5 4 -10 -3 -6 1
-13 9 -16 9 -3 14 -10 11 -14 -3 -5 6 -21 20 -35 13 -15 27 -36 30 -46 4 -11
11 -19 16 -19 6 0 8 -4 5 -8 -3 -5 4 -15 15 -22 10 -8 19 -20 19 -26 0 -6 18
-30 39 -52 24 -25 35 -43 28 -46 -7 -2 -2 -5 10 -5 13 -1 22 -4 22 -9 -3 -19
2 -33 10 -28 9 6 26 -22 23 -37 -1 -4 4 -7 11 -7 19 0 70 -56 63 -69 -4 -7 -1
-8 8 -5 11 4 19 -2 26 -20 5 -14 12 -26 15 -26 4 0 3 4 0 10 -3 6 1 7 9 4 9
-3 15 -9 14 -12 -2 -18 3 -35 8 -29 4 3 18 -6 33 -21 44 -46 92 -82 102 -77 5
4 6 -1 3 -9 -3 -9 2 -17 15 -21 12 -3 21 -11 21 -16 0 -5 7 -9 16 -9 8 0 12
-4 9 -10 -3 -5 3 -10 14 -10 13 0 21 -7 21 -16 0 -9 6 -14 13 -11 6 2 22 -6
33 -19 12 -12 25 -20 28 -17 3 4 6 1 6 -5 0 -7 7 -12 15 -12 8 0 15 -4 15 -10
0 -5 7 -10 15 -10 8 0 15 -4 15 -10 0 -5 9 -10 20 -10 11 0 20 -6 20 -14 0
-10 7 -13 20 -11 11 2 18 0 15 -6 -4 -5 1 -9 9 -9 9 0 16 -5 16 -11 0 -6 7 -8
16 -5 8 3 13 2 10 -3 -5 -8 19 -19 35 -17 4 1 15 -6 25 -15 11 -9 32 -19 47
-23 17 -4 25 -11 21 -18 -4 -6 -3 -8 4 -4 6 3 13 2 17 -4 4 -6 11 -8 16 -5 5
4 9 1 9 -4 0 -6 9 -11 20 -11 11 0 34 -9 52 -19 17 -11 35 -18 40 -15 4 3 8 0
8 -5 0 -6 3 -10 8 -9 12 2 66 -14 80 -25 7 -5 15 -7 19 -3 3 3 15 -2 26 -11
15 -13 18 -14 12 -3 -7 12 -6 13 6 4 14 -12 76 -28 82 -22 2 2 11 -3 20 -11
10 -7 17 -10 17 -6 0 4 8 1 17 -6 15 -12 16 -12 8 1 -8 13 -7 13 8 1 9 -7 17
-10 17 -6 0 4 6 3 13 -2 6 -6 20 -9 30 -8 9 2 17 -1 17 -5 0 -5 9 -7 20 -5 11
2 22 -1 26 -7 4 -6 9 -7 13 0 4 6 15 6 31 0 26 -11 89 -20 152 -22 21 0 38 -5
38 -11 0 -5 5 -3 10 5 6 10 10 11 10 3 0 -15 21 -13 32 2 5 7 8 7 8 0 0 -6 25
-10 58 -9 31 0 63 -4 70 -9 7 -6 12 -6 12 1 0 6 35 9 90 8 50 -1 90 1 90 4 0
3 22 5 50 5 27 -1 50 2 50 6 0 3 16 4 36 2 19 -2 33 0 30 5 -3 5 10 8 29 7 19
0 35 2 35 5 0 3 16 5 35 5 19 -1 35 2 35 7 0 4 13 8 28 8 15 0 34 6 41 13 10
9 12 9 7 0 -5 -9 4 -8 29 2 19 9 35 12 35 9 0 -4 7 -1 15 6 8 6 19 9 24 6 5
-4 13 -2 16 4 4 6 16 10 28 8 13 -2 21 2 20 10 -4 16 14 16 20 0 4 -10 6 -10
6 0 1 6 10 12 21 12 11 0 20 4 20 9 0 6 9 8 20 6 11 -2 20 0 20 6 0 5 7 9 16
9 9 0 12 5 8 12 -4 7 -3 8 5 4 13 -9 81 12 81 24 0 5 9 7 21 5 14 -3 19 0 16
8 -3 7 3 13 12 14 43 3 59 8 55 15 -5 7 10 12 29 9 4 0 7 4 7 9 0 6 7 10 15
10 9 0 18 7 22 16 5 13 7 13 14 2 7 -10 9 -9 9 4 0 11 5 15 15 12 8 -4 15 -1
15 6 0 6 5 8 10 5 6 -3 13 1 16 9 3 9 10 14 14 11 4 -3 13 2 20 10 7 8 16 13
20 10 4 -3 10 2 14 10 3 8 12 15 21 15 8 0 15 5 15 10 0 6 6 10 13 10 7 0 20
9 30 20 10 12 21 18 26 15 5 -2 11 2 15 10 3 8 12 15 21 15 8 0 15 4 15 8 0 5
11 15 25 22 13 7 22 18 18 23 -3 6 -1 7 4 4 6 -4 26 8 44 26 19 17 37 31 42
29 4 -1 7 5 7 14 0 11 5 14 16 10 12 -4 15 -2 10 9 -3 9 0 15 8 15 7 0 23 11
36 25 12 13 27 22 31 19 5 -3 6 3 2 12 -4 11 -3 15 5 10 6 -3 14 3 17 15 6 17
9 19 16 8 7 -11 9 -11 9 3 0 9 12 26 26 37 15 12 24 21 20 21 -4 0 4 11 16 24
13 13 27 21 32 18 5 -3 6 0 2 6 -3 6 2 15 11 21 10 6 14 11 9 11 -5 0 8 15 28
34 35 34 48 55 24 40 -7 -4 -8 -3 -4 4 4 7 13 12 20 12 12 0 30 34 27 52 0 4
6 5 14 2 11 -5 14 -2 9 12 -4 11 -4 16 1 12 11 -10 48 39 39 53 -4 7 -3 9 4 5
6 -3 13 3 17 14 4 11 11 17 17 14 6 -4 8 -2 4 4 -3 6 -1 14 5 17 5 4 8 13 5
21 -3 8 -2 13 2 11 4 -1 8 2 9 7 0 5 8 13 16 18 9 4 18 22 22 38 4 18 11 27
18 23 6 -4 8 0 4 10 -4 11 -1 17 9 17 12 0 12 4 4 20 -9 16 -8 18 5 14 11 -5
15 1 15 21 0 15 4 24 10 20 6 -3 10 3 10 14 0 12 5 21 11 21 5 0 7 5 4 10 -3
6 1 13 10 16 13 6 14 8 3 15 -10 7 -11 9 0 9 7 0 10 5 7 10 -3 6 -1 10 6 10 7
0 9 3 6 7 -4 3 -2 12 4 19 6 8 9 20 5 29 -3 8 0 14 7 12 7 -1 12 5 12 13 0 8
4 18 8 21 5 4 10 18 10 33 1 14 8 28 15 31 7 3 11 15 8 30 -3 14 0 25 6 25 6
0 8 3 5 7 -4 3 -2 12 5 20 6 7 8 16 5 20 -4 3 1 12 11 20 10 9 11 11 2 7 -13
-7 -13 -5 -2 9 8 9 11 21 7 27 -3 5 -2 10 3 10 5 0 8 13 7 30 -1 16 2 27 6 24
4 -2 8 4 8 13 1 36 4 53 11 53 3 0 5 12 5 27 -1 16 1 33 4 38 3 6 7 19 8 30 1
11 4 35 6 53 2 18 7 35 10 38 3 3 2 17 -3 30 -7 18 -6 22 4 18 10 -4 12 2 9
20 -3 15 1 34 8 43 8 9 9 14 3 10 -7 -4 -11 2 -11 18 0 14 4 22 9 19 6 -4 5 3
-1 15 -9 16 -9 21 1 21 9 0 9 3 -2 10 -12 8 -12 10 -1 10 9 0 10 4 4 13 -8 10
-10 31 -4 40 7 9 7 86 0 81 -5 -3 -9 0 -9 5 0 6 5 11 10 11 6 0 10 5 10 11 0
5 -6 7 -12 3 -10 -6 -10 -4 0 8 10 13 10 17 0 21 -10 4 -10 7 1 15 11 8 11 10
0 15 -10 4 -10 6 -2 6 9 1 10 8 3 25 -5 13 -9 33 -8 43 0 10 -3 27 -7 37 -7
15 -5 17 6 11 12 -8 12 -6 0 8 -11 14 -11 20 -1 32 11 13 10 14 -6 8 -16 -5
-17 -4 -8 8 8 10 9 21 1 39 -13 34 -15 60 -5 66 5 3 2 14 -7 24 -9 10 -14 23
-11 29 4 6 0 27 -9 47 -18 44 -18 47 -3 38 6 -4 8 -3 5 3 -15 25 -30 69 -28
86 1 9 -3 17 -8 17 -6 0 -10 3 -9 8 5 13 -26 112 -34 112 -5 0 -6 5 -3 10 4 6
2 17 -4 24 -7 8 -11 18 -9 22 1 5 -3 19 -10 30 -6 12 -8 24 -5 28 3 3 0 6 -7
6 -7 0 -10 3 -7 6 3 4 1 16 -5 28 -7 11 -12 25 -13 29 0 4 -5 11 -11 15 -6 4
-10 15 -8 25 1 9 -3 17 -9 17 -5 0 -8 3 -4 6 3 4 -1 13 -9 21 -8 8 -12 19 -9
24 4 5 1 9 -4 9 -6 0 -11 7 -11 15 0 8 -5 15 -11 15 -5 0 -8 4 -4 9 3 6 -3 14
-12 20 -14 8 -15 10 -3 11 9 0 11 3 5 8 -16 11 -47 62 -38 62 5 0 2 4 -5 9 -7
4 -14 15 -16 24 -1 9 -12 25 -24 35 -12 11 -19 22 -15 26 3 3 1 6 -6 6 -7 0
-10 4 -7 9 3 5 -1 11 -9 15 -8 3 -15 12 -15 21 0 8 -4 15 -10 15 -5 0 -10 5
-10 11 0 6 -8 18 -18 27 -11 11 -12 14 -2 8 8 -5 3 3 -12 17 -16 14 -28 30
-28 34 0 4 -18 27 -39 50 -22 23 -37 44 -34 47 4 3 -1 6 -10 6 -9 0 -19 5 -23
12 -5 7 -3 8 6 3 7 -5 5 3 -6 17 -10 14 -20 25 -22 23 -5 -5 -62 56 -62 66 0
6 -4 8 -9 4 -5 -3 -12 4 -16 15 -3 11 -11 20 -16 20 -5 0 -18 9 -29 20 -12 12
-26 18 -32 14 -7 -4 -8 -3 -4 5 8 12 -16 41 -33 41 -6 0 -11 10 -11 21 0 17
-3 19 -14 10 -11 -10 -16 -8 -21 8 -4 13 -15 21 -28 21 -18 0 -19 2 -7 10 13
8 12 10 -2 10 -10 0 -18 5 -18 10 0 6 -5 10 -11 10 -6 0 -18 8 -27 18 -10 10
-13 11 -7 2 6 -10 2 -9 -12 4 -13 10 -20 23 -16 29 3 5 1 7 -4 4 -6 -4 -16 0
-23 8 -7 8 -21 15 -32 15 -10 0 -16 5 -13 10 3 6 -1 10 -9 10 -9 0 -16 3 -16
8 0 11 -61 43 -71 37 -4 -3 -14 3 -21 15 -7 11 -20 20 -30 20 -9 0 -24 10 -32
21 -9 13 -21 19 -30 16 -9 -4 -16 -2 -16 4 0 6 -7 9 -15 5 -8 -3 -14 -2 -12 2
1 4 -3 9 -8 11 -6 2 -22 12 -37 22 -14 10 -33 19 -41 19 -9 0 -19 5 -22 10 -4
6 -11 8 -16 5 -5 -4 -9 -1 -9 6 0 6 -8 9 -20 6 -11 -3 -18 -1 -14 4 3 5 0 10
-5 10 -12 2 -26 5 -38 9 -5 1 -12 2 -16 1 -4 -1 -10 6 -14 15 -5 13 -7 13 -14
2 -7 -10 -9 -10 -9 0 0 6 -11 12 -25 12 -14 0 -25 4 -25 8 0 4 -12 9 -27 10
-15 1 -30 7 -34 14 -4 6 -14 8 -23 5 -9 -4 -16 -2 -16 2 0 5 -8 8 -17 7 -10
-2 -20 1 -23 5 -3 5 -21 9 -40 10 -19 2 -39 6 -45 10 -5 4 -28 10 -50 14 -47
8 -70 13 -70 15 0 1 -19 2 -42 3 -23 0 -40 4 -37 9 3 4 -16 6 -41 4 -25 -2
-48 0 -50 4 -3 4 -18 6 -35 5 -16 -1 -30 0 -30 4 0 3 -21 5 -47 3 -27 -1 -52
-2 -58 -2 -5 0 -54 1 -108 2 -55 2 -101 0 -104 -5 -2 -4 -13 -2 -24 3 -10 6
-19 7 -19 2z"/>
<path d="M730 860 c0 -5 5 -10 11 -10 5 0 7 5 4 10 -3 6 -8 10 -11 10 -2 0 -4
-4 -4 -10z"/>
</g>
</svg>
